<?xml version="1.0" encoding="utf-8"?>
<!-- Generator: Adobe Illustrator 27.9.1, SVG Export Plug-In . SVG Version: 6.00 Build 0)  -->
<svg version="1.1" id="Capa_1" xmlns="http://www.w3.org/2000/svg" xmlns:xlink="http://www.w3.org/1999/xlink" x="0px" y="0px"
	 viewBox="0 0 800 800" style="enable-background:new 0 0 800 800;" xml:space="preserve">
<style type="text/css">
	.st0{fill:#FFFFFF;}
</style>
<g>
	<path class="st0" d="M668.8,338l-88.4-141.7c-9.8-15.7-27-25.2-45.5-25.2H53.6C24,171.1,0,195.1,0,224.7v301.4
		c0,29.6,24,53.6,53.6,53.6h14.1c13.6,28.9,42.7,49.2,76.7,49.2s63.2-20.2,76.7-49.2h357.7c13.6,28.9,42.7,49.2,76.7,49.2
		c34,0,63.2-20.2,76.7-49.2h14.1c29.6,0,53.6-24,53.6-53.6v-44.6C800,406.5,742.2,344.5,668.8,338z M144.6,579.1
		c-19.4,0-35.1-15.7-35.1-35.1c0-19.4,15.7-35.1,35.1-35.1s35.1,15.7,35.1,35.1S164,579.1,144.6,579.1z M465.6,375.4v-97.1v-53.6
		h69.3L629,375.4H465.6z M655.6,579.1c-19.4,0-35.1-15.7-35.1-35.1c0-19.4,15.7-35.1,35.1-35.1s35.1,15.7,35.1,35.1
		S674.9,579.1,655.6,579.1z"/>
</g>
</svg>
